HIERARCHY
ROOT Hips
{
	OFFSET 0.00000 0.00000 0.00000
	CHANNELS 6 Xposition Yposition Zposition Zrotation Yrotation Xrotation 
	JOINT LHipJoint
	{
		OFFSET 0 0 0
		CHANNELS 3 Zrotation Yrotation Xrotation
		JOINT LeftUpLeg
		{
			OFFSET 1.53794 -1.55850 0.93568
			CHANNELS 3 Zrotation Yrotation Xrotation
			JOINT LeftLeg
			{
				OFFSET 2.28545 -6.27922 0.00000
				CHANNELS 3 Zrotation Yrotation Xrotation
				JOINT LeftFoot
				{
					OFFSET 2.37329 -6.52057 0.00000
					CHANNELS 3 Zrotation Yrotation Xrotation
					JOINT LeftToeBase
					{
						OFFSET 0.14846 -0.40788 2.09160
						CHANNELS 3 Zrotation Yrotation Xrotation
						End Site
						{
							OFFSET 0.00000 -0.00000 1.07536
						}
					}
				}
			}
		}
	}
	JOINT RHipJoint
	{
		OFFSET 0 0 0
		CHANNELS 3 Zrotation Yrotation Xrotation
		JOINT RightUpLeg
		{
			OFFSET -1.78290 -1.55850 0.93568
			CHANNELS 3 Zrotation Yrotation Xrotation
			JOINT RightLeg
			{
				OFFSET -2.24144 -6.15831 0.00000
				CHANNELS 3 Zrotation Yrotation Xrotation
				JOINT RightFoot
				{
					OFFSET -2.35091 -6.45907 0.00000
					CHANNELS 3 Zrotation Yrotation Xrotation
					JOINT RightToeBase
					{
						OFFSET -0.14428 -0.39641 2.07944
						CHANNELS 3 Zrotation Yrotation Xrotation
						End Site
						{
							OFFSET -0.00000 -0.00000 1.06864
						}
					}
				}
			}
		}
	}
	JOINT LowerBack
	{
		OFFSET 0 0 0
		CHANNELS 3 Zrotation Yrotation Xrotation
		JOINT Spine
		{
			OFFSET -0.08841 2.11430 -0.15818
			CHANNELS 3 Zrotation Yrotation Xrotation
			JOINT Spine1
			{
				OFFSET -0.00033 2.12605 -0.08097
				CHANNELS 3 Zrotation Yrotation Xrotation
				JOINT Neck
				{
					OFFSET 0 0 0
					CHANNELS 3 Zrotation Yrotation Xrotation
					JOINT Neck1
					{
						OFFSET 0.04431 1.59447 0.43193
						CHANNELS 3 Zrotation Yrotation Xrotation
						JOINT Head
						{
							OFFSET 0.00455 1.62017 -0.58852
							CHANNELS 3 Zrotation Yrotation Xrotation
							End Site
							{
								OFFSET -0.00920 1.72955 -0.25850
							}
						}
					}
				}
				JOINT LeftShoulder
				{
					OFFSET 0 0 0
					CHANNELS 3 Zrotation Yrotation Xrotation
					JOINT LeftArm
					{
						OFFSET 2.86490 1.49927 -0.33774
						CHANNELS 3 Zrotation Yrotation Xrotation
						JOINT LeftForeArm
						{
							OFFSET 4.87408 -0.00000 0.00000
							CHANNELS 3 Zrotation Yrotation Xrotation
							JOINT LeftHand
							{
								OFFSET 2.76729 -0.00000 0.00000
								CHANNELS 3 Zrotation Yrotation Xrotation
								JOINT LeftFingerBase
								{
									OFFSET 0 0 0
									CHANNELS 3 Zrotation Yrotation Xrotation
									JOINT LeftHandIndex1
									{
										OFFSET 0.98922 -0.00000 0.00000
										CHANNELS 3 Zrotation Yrotation Xrotation
										End Site
										{
											OFFSET 0.79753 -0.00000 0.00000
										}
									}
								}
								JOINT LThumb
								{
									OFFSET 0 0 0
									CHANNELS 3 Zrotation Yrotation Xrotation
									End Site
									{
										OFFSET 0.80972 -0.00000 0.80972
									}
								}
							}
						}
					}
				}
				JOINT RightShoulder
				{
					OFFSET 0 0 0
					CHANNELS 3 Zrotation Yrotation Xrotation
					JOINT RightArm
					{
						OFFSET -2.94414 1.45463 -0.25291
						CHANNELS 3 Zrotation Yrotation Xrotation
						JOINT RightForeArm
						{
							OFFSET -4.71404 -0.00000 0.00000
							CHANNELS 3 Zrotation Yrotation Xrotation
							JOINT RightHand
							{
								OFFSET -2.83468 -0.00000 0.00000
								CHANNELS 3 Zrotation Yrotation Xrotation
								JOINT RightFingerBase
								{
									OFFSET 0 0 0
									CHANNELS 3 Zrotation Yrotation Xrotation
									JOINT RightHandIndex1
									{
										OFFSET -0.86820 -0.00000 0.00000
										CHANNELS 3 Zrotation Yrotation Xrotation
										End Site
										{
											OFFSET -0.69996 -0.00000 0.00000
										}
									}
								}
								JOINT RThumb
								{
									OFFSET 0 0 0
									CHANNELS 3 Zrotation Yrotation Xrotation
									End Site
									{
										OFFSET -0.71065 -0.00000 0.71065
									}
								}
							}
						}
					}
				}
			}
		}
	}
}
MOTION
Frames: 15
Frame Time: .0083333
1.2783 16.0776 30.5957 0 0 0 0 0 0 -21 0 0 0 0 0 0 0 0 0 0 0 0 0 0 21 0 0 0 0 0 0 0 0 0 0 0 0 0 0 0 0 0 0 0 0 0 0 -16 0 0 21 0 0 11 0 0 0 -8 0 0 0 0 0 0 0 0 0 0 0 0 0 0 0 0 0 0 0 0 8 0 0 0 0 0 0 0 0 0 0 0 0 0 0 0 0 0
1.2783 16.0776 30.5957 172.7810 0.5424 -176.7970 0.0000 0.0000 0.0000 -28.7697 4.1671 3.9718 4.9309 13.3055 40.5231 2.4948 14.5199 28.7310 0.0090 0.6117 1.6808 0.0000 0.0000 0.0000 14.9942 7.8904 -30.4359 -2.7155 -10.2195 29.6906 -0.0689 -11.6446 9.1209 -1.3675 7.4011 -20.9092 -8.8457 -4.6108 -4.0371 -1.3050 -5.5237 1.0157 3.1233 -2.8825 4.0415 5.1099 2.0572 -27.5509 -4.5373 6.9750 42.2159 -1.0446 3.9300 23.3955 0.0000 -0.0000 0.0000 -70.4752 14.5410 58.5650 104.3988 -59.2019 -72.4363 -0.0000 -0.0000 21.4777 12.0525 2.6244 0.5601 -7.1250 0.0000 -0.0000 -11.7191 32.5075 3.6513 0.0000 -0.0000 0.0000 73.6093 -45.9047 31.5147 -83.8242 59.8554 -54.6542 0.0000 0.0000 3.4650 -11.8251 -3.6209 0.7576 7.1250 -0.0000 -0.0000 12.0461 -33.4957 3.4630
1.3127 16.0077 30.3569 173.1630 0.8306 -177.5180 0.0000 0.0000 0.0000 -28.1761 4.4918 3.3074 5.6646 14.0953 43.6204 2.4403 15.6933 28.5995 0.0205 0.9243 2.5406 0.0000 0.0000 0.0000 15.7112 8.5828 -29.2556 -3.0018 -10.6980 31.2680 0.1270 -11.6086 6.1620 -1.3681 7.4026 -20.9137 -8.6136 -4.3398 -3.5819 -1.2454 -5.2201 1.2612 3.1126 -2.7374 3.9876 4.9569 1.9811 -27.6407 -4.3991 6.9026 42.3151 -0.9548 3.9029 23.4851 0.0000 0.0000 0.0000 -70.9975 14.7994 57.7752 103.0347 -59.3482 -71.2637 -0.0000 -0.0000 21.4315 12.4142 3.1254 0.6876 -7.1250 0.0000 -0.0000 -11.5012 33.0214 3.4353 0.0000 0.0000 0.0000 73.7730 -44.9739 31.8572 -82.7667 59.8014 -53.7400 0.0000 0.0000 3.5641 -12.0508 -3.8204 0.8149 7.1250 -0.0000 -0.0000 11.8951 -33.7040 3.3567
1.3468 15.9371 30.1224 173.8770 1.2341 -178.1030 0.0000 0.0000 0.0000 -27.1811 4.8281 2.2556 6.5126 14.9073 47.0059 2.1809 16.7526 27.3503 0.0048 0.4472 1.2287 0.0000 0.0000 0.0000 16.9712 8.9861 -28.0085 -3.1874 -10.9924 32.2543 0.2502 -11.9452 4.2235 -1.3648 7.3942 -20.8885 -8.0235 -3.9793 -2.8187 -1.0786 -4.8727 1.1889 3.0542 -2.5427 3.3989 4.4420 1.7870 -27.0126 -4.1317 6.7023 42.0543 -0.7769 3.7884 22.9294 0.0000 0.0000 0.0000 -71.5931 15.4339 57.0654 101.0795 -59.5310 -69.5800 -0.0000 -0.0000 22.0064 12.7285 3.4014 0.7678 -7.1250 0.0000 -0.0000 -11.2887 33.3096 3.2895 0.0000 0.0000 0.0000 73.9220 -44.2550 32.3120 -81.4544 59.7222 -52.6062 0.0000 0.0000 3.7280 -12.1403 -3.9794 0.8553 7.1250 -0.0000 -0.0000 11.8473 -33.8665 3.2950
1.3683 15.8871 29.9064 174.8150 1.2522 -178.8040 0.0000 0.0000 0.0000 -25.9910 4.7286 1.2605 7.3663 15.6327 50.2463 1.8463 17.6926 25.6572 0.0033 0.3733 1.0257 0.0000 0.0000 0.0000 18.3596 8.7090 -26.6932 -3.3673 -11.2671 33.1860 0.3401 -12.0768 2.3556 -1.2878 7.1907 -20.2815 -7.1861 -3.6931 -2.4698 -0.8741 -4.5592 1.5765 2.8369 -2.3926 3.5163 4.8080 1.8035 -27.3495 -4.5252 6.5814 41.8238 -1.0983 3.7228 22.9084 -0.0000 -0.0000 0.0000 -72.3775 15.4285 56.0813 98.2380 -59.7420 -67.1281 -0.0000 -0.0000 22.4413 13.2532 3.9182 0.9220 -7.1250 0.0000 -0.0000 -10.9400 33.8497 3.0389 -0.0000 -0.0000 0.0000 74.6313 -42.5087 32.3111 -79.3773 59.5693 -50.8138 0.0000 0.0000 3.9044 -12.1962 -4.2096 0.9090 7.1250 -0.0000 -0.0000 11.8376 -34.0992 3.2240
1.3926 15.8242 29.6888 175.6650 1.3469 -179.3950 0.0000 0.0000 0.0000 -24.8621 4.6600 0.2004 8.2576 16.3055 53.4854 1.5506 18.6076 24.1777 0.0011 0.2155 0.5920 0.0000 0.0000 0.0000 19.6564 8.5976 -25.4023 -3.5102 -11.4784 33.9107 0.4109 -12.2267 0.5613 -1.2493 7.0864 -19.9717 -6.4316 -3.4236 -2.0245 -0.6729 -4.2695 1.8249 2.6680 -2.2429 3.4484 4.8130 1.7272 -27.1572 -4.6492 6.4391 41.8505 -1.1943 3.6295 22.2859 0.0000 0.0000 0.0000 -73.1217 15.5467 55.0808 95.6111 -59.8807 -64.8574 -0.0000 -0.0000 22.8852 13.6082 4.3688 1.0564 -7.1250 0.0000 -0.0000 -10.7178 34.3190 2.8512 0.0000 0.0000 0.0000 75.1261 -41.0093 32.4576 -77.5690 59.4080 -49.2559 0.0000 0.0000 4.2865 -12.2693 -4.3382 0.9425 7.1250 -0.0000 -0.0000 11.7985 -34.2310 3.1745
1.4139 15.7665 29.4790 176.4960 1.3440 -179.8850 0.0000 0.0000 0.0000 -23.7679 4.3817 -1.0137 9.1587 16.9087 56.6373 1.2401 19.3941 22.5587 0.0001 0.0493 0.1355 0.0000 0.0000 0.0000 20.8753 8.3413 -24.2019 -3.6247 -11.6436 34.4824 0.4588 -12.3403 -1.0610 -1.2153 6.9929 -19.6943 -5.6893 -3.1925 -1.6431 -0.4660 -4.0166 2.0519 2.5018 -2.1091 3.4039 4.8946 1.6659 -27.1747 -4.7730 6.2587 41.6176 -1.3272 3.5427 22.1130 0.0000 -0.0000 0.0000 -73.9169 15.6314 54.0109 92.6927 -59.9726 -62.3317 -0.0000 -0.0000 23.2953 13.9383 4.8635 1.2054 -7.1250 0.0000 -0.0000 -10.5218 34.8339 2.6638 0.0000 -0.0000 0.0000 75.6693 -39.3945 32.5694 -75.6916 59.2121 -47.6413 0.0000 0.0000 4.8814 -12.3247 -4.4248 0.9657 7.1250 -0.0000 -0.0000 11.7671 -34.3201 3.1397
1.4332 15.7149 29.2766 177.1880 1.2342 -180.2500 0.0000 0.0000 0.0000 -22.8500 3.8732 -2.3935 10.0445 17.4348 59.6370 0.9435 20.0301 20.9418 0.0003 -0.1062 -0.2919 0.0000 0.0000 0.0000 21.8730 8.0044 -23.1781 -3.7330 -11.7963 35.0152 0.4899 -12.4279 -2.6227 -1.1885 6.9182 -19.4733 -5.0852 -3.0072 -1.3630 -0.2877 -3.8059 2.2415 2.3723 -1.9963 3.3934 5.0285 1.6082 -27.2748 -4.9106 6.0703 41.4358 -1.4769 3.4595 22.0073 0.0000 -0.0000 0.0000 -74.7374 15.6993 52.8851 89.5506 -59.9992 -59.6108 -0.0000 -0.0000 23.6320 14.2535 5.4106 1.3722 -7.1250 0.0000 -0.0000 -10.3455 35.4032 2.4724 0.0000 -0.0000 0.0000 76.2515 -37.7223 32.6250 -73.8252 58.9880 -46.0398 0.0000 0.0000 5.7736 -12.3142 -4.3774 0.9545 7.1250 -0.0000 -0.0000 11.7682 -34.2721 3.1541
1.4513 15.6696 29.0809 177.6540 1.0487 -180.4840 0.0000 0.0000 0.0000 -22.2061 3.1648 -3.9432 10.8935 17.8826 62.4354 0.6755 20.5015 19.3975 0.0019 -0.2817 -0.7741 0.0000 0.0000 0.0000 22.5714 7.6483 -22.3285 -3.8317 -11.9330 35.4955 0.5095 -12.5391 -4.0990 -1.1727 6.8736 -19.3415 -4.7170 -2.8586 -1.2106 -0.1609 -3.6247 2.3930 2.3116 -1.9016 3.4333 5.0923 1.5208 -27.3199 -4.9675 5.8492 41.2767 -1.5789 3.3677 21.8887 -0.0000 0.0000 0.0000 -75.5673 15.7493 51.7110 86.2399 -59.9465 -56.7442 -0.0000 -0.0000 23.8977 14.5505 5.9871 1.5508 -7.1250 0.0000 -0.0000 -10.1891 36.0034 2.2828 -0.0000 0.0000 0.0000 76.8561 -36.0283 32.6503 -72.0956 58.7534 -44.5592 0.0000 0.0000 6.8471 -12.2346 -4.2155 0.9132 7.1250 -0.0000 -0.0000 11.8075 -34.1067 3.2133
1.4693 15.6309 28.8910 177.8560 0.8073 -180.5990 0.0000 0.0000 0.0000 -21.8739 2.2880 -5.6296 11.6831 18.2534 64.9807 0.4405 20.8371 17.9602 0.0052 -0.4678 -1.2854 0.0000 0.0000 0.0000 22.9515 7.2995 -21.6446 -3.9276 -12.0634 35.9567 0.5232 -12.7136 -5.5082 -1.1620 6.8432 -19.2517 -4.6133 -2.7321 -1.1447 -0.1065 -3.4597 2.4716 2.3196 -1.8186 3.4617 5.0970 1.4024 -27.3033 -4.9456 5.6011 41.1667 -1.6339 3.2747 21.7768 -0.0000 -0.0000 0.0000 -76.3591 15.8666 50.5407 82.8810 -59.8076 -53.8387 -0.0000 -0.0000 24.0385 14.8763 6.5408 1.7332 -7.1250 0.0000 -0.0000 -10.0059 36.5843 2.0968 -0.0000 -0.0000 0.0000 77.4944 -34.4026 32.6672 -70.5777 58.5255 -43.2631 0.0000 0.0000 7.9232 -12.1063 -3.9574 0.8481 7.1250 -0.0000 -0.0000 11.8713 -33.8432 3.3088
1.4873 15.5988 28.7060 177.8430 0.5382 -180.6260 0.0000 0.0000 0.0000 -21.7830 1.3073 -7.4075 12.3976 18.5537 67.2435 0.2403 21.0361 16.6406 0.0116 -0.6947 -1.9090 0.0000 0.0000 0.0000 23.0854 6.9745 -21.0739 -4.0183 -12.1847 36.3886 0.5343 -12.9680 -6.8789 -1.1433 6.7899 -19.0943 -4.7206 -2.6115 -1.1968 -0.1172 -3.2882 2.5315 2.3728 -1.7372 3.5462 5.0494 1.2524 -27.2612 -4.8524 5.3209 41.1087 -1.6492 3.1770 21.6855 -0.0000 -0.0000 0.0000 -77.0968 15.9701 49.3687 79.5231 -59.5812 -50.9395 -0.0000 -0.0000 24.0786 15.1984 7.0066 1.8980 -7.1250 0.0000 -0.0000 -9.8118 37.0778 1.9352 -0.0000 -0.0000 0.0000 78.1836 -32.8042 32.6764 -69.2794 58.3139 -42.1570 0.0000 0.0000 8.9553 -11.9846 -3.5709 0.7575 7.1250 -0.0000 -0.0000 11.9106 -33.4519 3.4355
1.5053 15.5738 28.5248 177.7380 0.2719 -180.5960 0.0000 0.0000 0.0000 -21.7839 0.2815 -9.2300 13.0272 18.7920 69.2101 0.0661 21.1385 15.4003 0.0208 -0.9316 -2.5607 0.0000 0.0000 0.0000 23.1201 6.6658 -20.5464 -4.0951 -12.2859 36.7509 0.5420 -13.2612 -8.1512 -1.1227 6.7304 -18.9192 -4.9148 -2.4794 -1.3123 -0.1559 -3.0947 2.5697 2.4450 -1.6469 3.6454 4.9686 1.0849 -27.1443 -4.7091 5.0260 41.0629 -1.6347 3.0807 21.5759 0.0000 0.0000 0.0000 -77.7812 16.0899 48.2232 76.2801 -59.2767 -48.1471 -0.0000 -0.0000 23.9819 15.5102 7.3462 2.0323 -7.1250 0.0000 -0.0000 -9.6054 37.4437 1.8065 0.0000 0.0000 0.0000 78.9043 -31.2602 32.7035 -68.2510 58.1350 -41.2828 0.0000 0.0000 9.7309 -11.8476 -3.1174 0.6536 7.1250 -0.0000 -0.0000 11.9531 -32.9936 3.5836
1.5226 15.5555 28.3476 177.6750 0.0333 -180.5410 0.0000 0.0000 0.0000 -21.7211 -0.7420 -11.0678 13.5690 18.9781 70.8837 -0.0919 21.1756 14.1845 0.0321 -1.1568 -3.1803 0.0000 0.0000 0.0000 23.2079 6.3737 -19.9930 -4.1462 -12.3525 36.9906 0.5479 -13.5755 -9.2913 -1.1012 6.6680 -18.7356 -5.0420 -2.3261 -1.4114 -0.1920 -2.8781 2.5726 2.4861 -1.5425 3.6921 4.8934 0.9009 -26.9816 -4.5576 4.7244 41.0579 -1.6170 2.9912 21.4826 -0.0000 -0.0000 0.0000 -78.4040 16.2644 47.1069 73.1899 -58.9049 -45.4955 -0.0000 -0.0000 23.8041 15.8229 7.4771 2.1121 -7.1250 0.0000 -0.0000 -9.3636 37.5976 1.7243 -0.0000 -0.0000 0.0000 79.6395 -29.8092 32.8166 -67.4803 57.9943 -40.6287 0.0000 0.0000 10.2022 -11.8165 -2.7066 0.5660 7.1250 -0.0000 -0.0000 11.9185 -32.5821 3.6939
1.5390 15.5445 28.1731 177.7540 -0.1554 -180.4810 0.0000 0.0000 0.0000 -21.4734 -1.7091 -12.8972 14.0197 19.1200 72.2646 -0.2412 21.1769 12.9519 0.0451 -1.3705 -3.7688 0.0000 0.0000 0.0000 23.4616 6.0938 -19.3592 -4.1624 -12.3734 37.0661 0.5519 -13.8774 -10.2715 -1.0820 6.6114 -18.5692 -5.0102 -2.0502 -1.5500 -0.1929 -2.6339 2.6108 2.4715 -1.4779 3.7834 4.8883 0.7342 -26.8699 -4.4493 4.4279 41.0496 -1.6332 2.9066 21.4090 -0.0000 0.0000 0.0000 -78.9669 16.3734 46.0212 70.2634 -58.4757 -42.9951 -0.0000 -0.0000 23.6820 16.0856 7.4511 2.1416 -7.1250 0.0000 -0.0000 -9.1383 37.5879 1.6841 -0.0000 0.0000 0.0000 80.4061 -28.3625 32.9650 -66.9550 57.8950 -40.1835 0.0000 0.0000 10.4191 -11.8767 -2.3737 0.4991 7.1250 -0.0000 -0.0000 11.8236 -32.2512 3.7597
1.5540 15.5403 28.0012 177.9860 -0.2893 -180.4370 0.0000 0.0000 0.0000 -21.0341 -2.5988 -14.6897 14.3766 19.2243 73.3515 -0.3828 21.1621 11.7044 0.0557 -1.5229 -4.1890 0.0000 0.0000 0.0000 23.8888 5.8091 -18.6247 -4.1406 -12.3452 36.9643 0.5544 -14.1392 -11.0574 -1.0729 6.5845 -18.4901 -4.8018 -1.8279 -1.6506 -0.1581 -2.3367 2.6323 2.4040 -1.3251 3.8303 4.7990 0.5275 -26.8296 -4.2909 4.1185 41.1474 -1.6096 2.8180 21.4267 0.0000 -0.0000 0.0000 -79.4852 16.5268 44.9761 67.5303 -58.0036 -40.6711 -0.0000 -0.0000 23.5927 16.3232 7.2650 2.1210 -7.1250 0.0000 -0.0000 -8.9092 37.4123 1.6798 0.0000 -0.0000 0.0000 81.1610 -27.0110 33.1886 -66.6754 57.8411 -39.9467 0.0000 0.0000 10.4372 -11.9775 -2.1898 0.4644 7.1250 -0.0000 -0.0000 11.7185 -32.0702 3.7772
